<svg xmlns="http://www.w3.org/2000/svg" xmlns:xlink="http://www.w3.org/1999/xlink" version="1.0" x="0" y="0" width="2400" height="595.1690582632542" viewBox="38.58830871582031 92.4115966796875 262.82338256835936 65.17681045532227" preserveAspectRatio="xMidYMid meet" color-interpolation-filters="sRGB"><g><defs><linearGradient id="92" x1="0%" y1="0%" x2="100%" y2="0%"><stop offset="0%" stop-color="#fa71cd"></stop> <stop offset="100%" stop-color="#9b59b6"></stop></linearGradient><linearGradient id="93" x1="0%" y1="0%" x2="100%" y2="0%"><stop offset="0%" stop-color="#f9d423"></stop> <stop offset="100%" stop-color="#f83600"></stop></linearGradient><linearGradient id="94" x1="0%" y1="0%" x2="100%" y2="0%"><stop offset="0%" stop-color="#0064d2"></stop> <stop offset="100%" stop-color="#1cb0f6"></stop></linearGradient><linearGradient id="95" x1="0%" y1="0%" x2="100%" y2="0%"><stop offset="0%" stop-color="#f00978"></stop> <stop offset="100%" stop-color="#3f51b1"></stop></linearGradient><linearGradient id="96" x1="0%" y1="0%" x2="100%" y2="0%"><stop offset="0%" stop-color="#7873f5"></stop> <stop offset="100%" stop-color="#ec77ab"></stop></linearGradient><linearGradient id="97" x1="0%" y1="0%" x2="100%" y2="0%"><stop offset="0%" stop-color="#f9d423"></stop> <stop offset="100%" stop-color="#e14fad"></stop></linearGradient><linearGradient id="98" x1="0%" y1="0%" x2="100%" y2="0%"><stop offset="0%" stop-color="#009efd"></stop> <stop offset="100%" stop-color="#2af598"></stop></linearGradient><linearGradient id="99" x1="0%" y1="0%" x2="100%" y2="0%"><stop offset="0%" stop-color="#ffcc00"></stop> <stop offset="100%" stop-color="#00b140"></stop></linearGradient><linearGradient id="100" x1="0%" y1="0%" x2="100%" y2="0%"><stop offset="0%" stop-color="#d51007"></stop> <stop offset="100%" stop-color="#ff8177"></stop></linearGradient><linearGradient id="102" x1="0%" y1="0%" x2="100%" y2="0%"><stop offset="0%" stop-color="#a2b6df"></stop> <stop offset="100%" stop-color="#0c3483"></stop></linearGradient><linearGradient id="103" x1="0%" y1="0%" x2="100%" y2="0%"><stop offset="0%" stop-color="#7ac5d8"></stop> <stop offset="100%" stop-color="#eea2a2"></stop></linearGradient><linearGradient id="104" x1="0%" y1="0%" x2="100%" y2="0%"><stop offset="0%" stop-color="#00ecbc"></stop> <stop offset="100%" stop-color="#007adf"></stop></linearGradient><linearGradient id="105" x1="0%" y1="0%" x2="100%" y2="0%"><stop offset="0%" stop-color="#b88746"></stop> <stop offset="100%" stop-color="#fdf5a6"></stop></linearGradient></defs><g fill="#333" class="icon-text-wrapper icon-svg-group iconsvg" transform="translate(41.165008544921875,94.98829460144043)"><g class="iconsvg-imagesvg" transform="translate(0,0)"><g><rect fill="#333" fill-opacity="0" stroke-width="2" x="0" y="0" width="60" height="60.02340912956053" class="image-rect"></rect> <svg x="0" y="0" width="60" height="60.02340912956053" filtersec="colorsb8700786394" class="image-svg-svg primary" style="overflow: visible;"><svg xmlns="http://www.w3.org/2000/svg" viewBox="-0.005622896831482649 0.010513956658542156 86.5873794555664 86.6209716796875"><g fill-rule="evenodd"><path d="M84.08 28.85l-6.4 11.91c.06.83.09 1.66.09 2.51a34.5 34.5 0 0 1-60.17 23l20.72-39.34 10.27 17.79 6.26-10.9-7.76-14.53-16.28-1.37-20 37.17L6 65.3a43.28 43.28 0 0 0 78.08-36.45z" fill="#fd9803"></path><path d="M2.46 57.69a43.28 43.28 0 0 1 78.05-36.46L75.68 31.4l-20 37.18-16.23-1.34-7.76-14.53L38 41.82 48.22 59.6l20.72-39.39A34.51 34.51 0 0 0 8.77 43.27c0 .84 0 1.68.09 2.51z" fill="#112656"></path></g></svg></svg> </g></g> <g transform="translate(67,9.508707046508789)"><g fill-rule="" class="tp-name iconsvg-namesvg" transform="translate(0,0)"><g transform="scale(1)"><g><path d="M21.41-20.29L17.03 0 9.56 0 6.01-14.67 2.88 0 0 0 4.31-20.29 11.95-20.29 15.31-5.43 18.47-20.29 21.41-20.29ZM36.34-6.42L27.36-6.42Q27.23-5.72 27.18-5.08 27.13-4.44 27.13-3.93L27.13-3.93Q27.13-3.64 27.17-3.29 27.2-2.94 27.31-2.64 27.42-2.33 27.63-2.13 27.84-1.92 28.22-1.92L28.22-1.92Q28.51-1.92 28.88-2.11 29.24-2.3 29.61-2.65 29.98-3 30.31-3.52 30.65-4.03 30.84-4.67L30.84-4.67 36.08-4.67 35.25-1.25Q34.61-0.83 33.78-0.54 32.95-0.26 32.02-0.08 31.1 0.1 30.14 0.18 29.18 0.26 28.32 0.26L28.32 0.26Q26.72 0.26 25.34-0.03 23.97-0.32 22.95-1.02 21.92-1.73 21.33-2.89 20.74-4.06 20.74-5.78L20.74-5.78Q20.74-7.35 21.24-8.85 21.73-10.36 22.9-11.52 24.07-12.69 26.03-13.39 28-14.09 30.94-14.09L30.94-14.09Q34.13-14.09 35.75-13.1 37.36-12.11 37.36-10L37.36-10Q37.36-9.14 37.11-8.13 36.85-7.13 36.34-6.42L36.34-6.42ZM31.61-10.23L31.61-10.23Q31.61-11.22 31.29-11.57 30.97-11.92 30.52-11.92L30.52-11.92Q30.01-11.92 29.58-11.59 29.15-11.25 28.8-10.69 28.44-10.13 28.16-9.41 27.87-8.69 27.68-7.89L27.68-7.89 31.32-7.89Q31.38-8.28 31.45-8.69L31.45-8.69Q31.51-9.04 31.56-9.46 31.61-9.88 31.61-10.23ZM37.55 0L40.46-13.74 45.67-13.74 46.15-11.35 46.37-11.35Q47.11-12.5 48.26-13.3 49.41-14.09 51.3-14.09L51.3-14.09Q51.42-14.09 51.7-14.08 51.97-14.06 52.3-13.98 52.64-13.9 53.01-13.76 53.37-13.62 53.73-13.36L53.73-13.36 52.32-6.78 48.84-6.78Q48.77-8.76 48.48-9.54 48.2-10.32 47.56-10.32L47.56-10.32Q47.24-10.32 46.87-10.18 46.5-10.04 46.12-9.56L46.12-9.56 44.07 0 37.55 0ZM64.53-11.67L66.61-21.48 73.16-21.48 68.59 0 63.41 0 62.83-2.05 62.61-2.05Q62.42-1.76 62.02-1.36 61.62-0.96 61.01-0.59 60.4-0.22 59.57 0.02 58.74 0.26 57.66 0.26L57.66 0.26Q56.54 0.26 55.75-0.08 54.97-0.42 54.48-0.99 53.98-1.57 53.76-2.38 53.53-3.2 53.53-4.15L53.53-4.15Q53.53-4.57 53.6-5.48 53.66-6.39 53.9-7.49 54.14-8.6 54.6-9.76 55.07-10.93 55.85-11.89 56.63-12.85 57.78-13.47 58.93-14.09 60.56-14.09L60.56-14.09Q61.08-14.09 61.65-14 62.23-13.9 62.75-13.65 63.28-13.39 63.7-12.91 64.11-12.43 64.3-11.67L64.3-11.67 64.53-11.67ZM62.71-10.96L62.71-10.96Q61.94-10.96 61.43-10.12 60.92-9.27 60.6-8.15 60.28-7.03 60.13-5.91 59.99-4.79 59.99-4.25L59.99-4.25Q59.99-3.61 60.18-3.18 60.37-2.75 60.92-2.75L60.92-2.75Q61.24-2.75 61.54-2.89 61.84-3.04 62.11-3.24 62.39-3.45 62.58-3.68 62.77-3.9 62.9-4.06L62.9-4.06 64.14-9.88Q63.92-10.23 63.55-10.59 63.19-10.96 62.71-10.96ZM73.03-13.74L79.77-13.74 80.73-4.35 85.78-13.74 89.17-13.74 81.47 0Q80.32 2.01 79.13 3.1 77.95 4.19 76.56 4.7 75.17 5.21 73.49 5.29 71.81 5.37 69.67 5.37L69.67 5.37 70.15 3.16Q71.21 3.16 72.12 3.13 73.03 3.1 73.57 2.94L73.57 2.94Q74.31 2.75 74.63 2.25 74.95 1.76 74.95 0.8L74.95 0.8Q74.95 0.16 74.83-0.67 74.72-1.5 74.6-2.43L74.6-2.43 73.03-13.74ZM112.95-20.29L112.4-17.87 107.26-17.87 103.46 0 96.55 0 100.36-17.87 95.27-17.87 95.85-20.29 112.95-20.29ZM121.45-21.48L119.37-11.7 119.6-11.7Q120.2-12.3 121-12.82L121-12.82Q121.67-13.26 122.6-13.62 123.53-13.97 124.68-13.97L124.68-13.97Q126.34-13.97 127.43-13.12 128.51-12.27 128.51-10.8L128.51-10.8Q128.51-10.36 128.42-9.8 128.32-9.24 128.19-8.61 128.06-7.99 127.92-7.37 127.78-6.74 127.68-6.23L127.68-6.23 126.34 0 119.85 0 121.61-8.34Q121.67-8.76 121.77-9.19 121.86-9.62 121.86-9.97L121.86-9.97Q121.86-10.45 121.62-10.75 121.38-11.06 120.91-11.06L120.91-11.06Q120.33-11.06 119.8-10.64 119.28-10.23 118.99-9.91L118.99-9.91 116.88 0 110.36 0 114.9-21.48 121.45-21.48ZM138.55-13.74L135.58 0 129.09 0 132-13.74 138.55-13.74ZM139.38-17.93L139.38-17.93Q139.38-17.19 139.07-16.65 138.77-16.11 138.28-15.72 137.78-15.34 137.14-15.15 136.5-14.96 135.83-14.96L135.83-14.96Q134.55-14.96 133.69-15.56 132.83-16.17 132.83-17.48L132.83-17.48Q132.83-18.19 133.11-18.74 133.4-19.3 133.9-19.67 134.39-20.04 135.05-20.23 135.7-20.42 136.41-20.42L136.41-20.42Q137.65-20.42 138.52-19.82 139.38-19.21 139.38-17.93ZM147.14-11.7L147.34-11.7Q148.01-12.34 148.84-12.88L148.84-12.88Q149.57-13.33 150.56-13.71 151.56-14.09 152.77-14.09L152.77-14.09Q154.43-14.09 155.52-13.25 156.61-12.4 156.61-10.93L156.61-10.93Q156.61-10.51 156.51-9.92 156.41-9.33 156.29-8.69 156.16-8.05 156.01-7.4 155.87-6.74 155.77-6.23L155.77-6.23 154.43 0 147.94 0 149.7-8.34Q149.77-8.76 149.86-9.19 149.96-9.62 149.96-9.97L149.96-9.97Q149.96-10.45 149.72-10.75 149.48-11.06 149-11.06L149-11.06Q148.42-11.06 147.9-10.64 147.37-10.23 147.08-9.94L147.08-9.94 144.97 0 138.45 0 141.36-13.74 146.57-13.74 147.14-11.7ZM169.1-11.67L170.54-13.74 175.72-13.74 173.1-1.31Q172.81 0.13 172.14 1.34 171.47 2.56 170.27 3.45 169.07 4.35 167.26 4.86 165.46 5.37 162.87 5.37L162.87 5.37Q162.39 5.37 161.72 5.35 161.05 5.34 160.34 5.32 159.64 5.31 159 5.27 158.36 5.24 157.98 5.21L157.98 5.21 158.59 2.91Q159.61 3.07 160.68 3.08 161.75 3.1 162.52 3.1L162.52 3.1Q163.48 3.1 164.13 2.92 164.79 2.75 165.22 2.37 165.65 1.98 165.92 1.34 166.19 0.7 166.35-0.22L166.35-0.22 166.74-2.3 166.51-2.3Q166.32-2.01 165.95-1.61 165.59-1.21 165.01-0.85 164.44-0.48 163.65-0.24 162.87 0 161.88 0L161.88 0Q160.76 0 159.98-0.34 159.19-0.67 158.71-1.26 158.24-1.85 158.01-2.67 157.79-3.48 157.79-4.44L157.79-4.44Q157.79-4.86 157.85-5.72 157.92-6.58 158.16-7.67 158.39-8.76 158.86-9.89 159.32-11.03 160.1-11.95 160.89-12.88 162.05-13.49 163.22-14.09 164.88-14.09L164.88-14.09Q165.39-14.09 166-14 166.61-13.9 167.18-13.65 167.76-13.39 168.21-12.91 168.65-12.43 168.91-11.67L168.91-11.67 169.1-11.67ZM166.96-10.96L166.96-10.96Q166.19-10.96 165.68-10.15 165.17-9.33 164.85-8.25 164.53-7.16 164.39-6.09 164.24-5.02 164.24-4.51L164.24-4.51Q164.24-3.87 164.45-3.44 164.66-3 165.2-3L165.2-3Q165.52-3 165.83-3.16 166.13-3.32 166.4-3.53 166.67-3.74 166.88-3.96 167.09-4.19 167.18-4.31L167.18-4.31 168.37-9.91Q168.11-10.26 167.78-10.61 167.44-10.96 166.96-10.96ZM189.94-9.72L185.78-9.72Q185.82-9.88 185.85-10.04 185.88-10.2 185.88-10.39L185.88-10.39Q185.88-10.96 185.67-11.46 185.47-11.95 184.86-11.95L184.86-11.95Q184.31-11.95 183.77-11.49 183.23-11.03 183.23-10.26L183.23-10.26Q183.23-9.75 183.5-9.44 183.77-9.14 184.22-8.95 184.67-8.76 185.23-8.63 185.78-8.5 186.33-8.37L186.33-8.37Q187.1-8.18 187.78-7.91 188.47-7.64 189.01-7.19 189.56-6.74 189.88-6.09 190.2-5.43 190.2-4.47L190.2-4.47Q190.2-3.13 189.57-2.22 188.95-1.31 187.85-0.75 186.74-0.19 185.26 0.03 183.77 0.26 182.08 0.26L182.08 0.26Q179.49 0.26 177.79-0.13 176.1-0.51 175.43-0.86L175.43-0.86 176.1-4.06 180.42-4.06Q180.38-3.9 180.38-3.76 180.38-3.61 180.38-3.45L180.38-3.45Q180.38-2.72 180.72-2.29 181.05-1.85 181.89-1.85L181.89-1.85Q182.81-1.85 183.21-2.38 183.61-2.91 183.61-3.36L183.61-3.36Q183.61-3.8 183.28-4.14 182.94-4.47 182.43-4.71 181.92-4.95 181.29-5.13 180.67-5.31 180.1-5.47L180.1-5.47Q179.68-5.56 179.15-5.78 178.63-6.01 178.15-6.42 177.67-6.84 177.35-7.49 177.03-8.15 177.03-9.14L177.03-9.14Q177.03-10.55 177.71-11.49 178.4-12.43 179.5-13.01 180.61-13.58 182-13.84 183.39-14.09 184.79-14.09L184.79-14.09Q186.55-14.09 188.12-13.77 189.68-13.46 190.67-12.94L190.67-12.94 189.94-9.72Z" transform="translate(0, 21.479999542236328)"></path></g> </g></g> <g fill-rule="" class="tp-slogan iconsvg-slogansvg" fill="#333" transform="translate(14.654998779296875,32.849998474121094)"> <g transform="scale(1, 1)"><g transform="scale(1)"><path d="M1.08 0L1.08-7.87L2.11-7.87L4.96-2.93L5.81-1.30L5.86-1.30Q5.82-1.90 5.78-2.54Q5.74-3.18 5.74-3.80L5.74-3.80L5.74-7.87L6.68-7.87L6.68 0L5.65 0L2.80-4.96L1.94-6.58L1.90-6.58Q1.94-5.98 1.99-5.36Q2.03-4.74 2.03-4.12L2.03-4.12L2.03 0L1.08 0ZM11.75 0.14L11.75 0.14Q11.00 0.14 10.39-0.14Q9.77-0.43 9.32-0.97Q8.88-1.50 8.63-2.26Q8.39-3.02 8.39-3.97L8.39-3.97Q8.39-4.92 8.63-5.67Q8.88-6.42 9.32-6.94Q9.77-7.46 10.39-7.74Q11.00-8.02 11.75-8.02L11.75-8.02Q12.49-8.02 13.11-7.73Q13.73-7.45 14.18-6.93Q14.63-6.41 14.87-5.66Q15.12-4.91 15.12-3.97L15.12-3.97Q15.12-3.02 14.87-2.26Q14.63-1.50 14.18-0.97Q13.73-0.43 13.11-0.14Q12.49 0.14 11.75 0.14ZM11.75-0.73L11.75-0.73Q12.28-0.73 12.70-0.96Q13.13-1.19 13.43-1.61Q13.74-2.04 13.91-2.63Q14.08-3.23 14.08-3.97L14.08-3.97Q14.08-4.70 13.91-5.29Q13.74-5.88 13.43-6.29Q13.13-6.70 12.70-6.92Q12.28-7.14 11.75-7.14L11.75-7.14Q11.22-7.14 10.79-6.92Q10.37-6.70 10.06-6.29Q9.76-5.88 9.59-5.29Q9.42-4.70 9.42-3.97L9.42-3.97Q9.42-3.23 9.59-2.63Q9.76-2.04 10.06-1.61Q10.37-1.19 10.79-0.96Q11.22-0.73 11.75-0.73ZM18.20 0L18.20-7.03L15.83-7.03L15.83-7.87L21.59-7.87L21.59-7.03L19.21-7.03L19.21 0L18.20 0ZM23.00 0L23.00-7.87L24-7.87L24-4.57L27.66-4.57L27.66-7.87L28.67-7.87L28.67 0L27.66 0L27.66-3.71L24-3.71L24 0L23.00 0ZM30.83 0L30.83-7.87L31.82-7.87L31.82 0L30.83 0ZM33.98 0L33.98-7.87L35.02-7.87L37.86-2.93L38.71-1.30L38.76-1.30Q38.72-1.90 38.68-2.54Q38.64-3.18 38.64-3.80L38.64-3.80L38.64-7.87L39.59-7.87L39.59 0L38.56 0L35.70-4.96L34.85-6.58L34.80-6.58Q34.85-5.98 34.89-5.36Q34.93-4.74 34.93-4.12L34.93-4.12L34.93 0L33.98 0ZM41.29-3.94L41.29-3.94Q41.29-4.88 41.56-5.64Q41.83-6.40 42.32-6.92Q42.80-7.45 43.46-7.73Q44.12-8.02 44.92-8.02L44.92-8.02Q45.73-8.02 46.28-7.71Q46.82-7.40 47.17-7.04L47.17-7.04L46.61-6.41Q46.31-6.72 45.92-6.93Q45.53-7.14 44.93-7.14L44.93-7.14Q44.33-7.14 43.85-6.92Q43.37-6.70 43.03-6.28Q42.70-5.87 42.51-5.28Q42.32-4.69 42.32-3.96L42.32-3.96Q42.32-3.22 42.50-2.62Q42.67-2.03 43.00-1.61Q43.33-1.19 43.82-0.96Q44.30-0.73 44.94-0.73L44.94-0.73Q45.36-0.73 45.74-0.86Q46.12-0.98 46.36-1.20L46.36-1.20L46.36-3.25L44.69-3.25L44.69-4.08L47.27-4.08L47.27-0.77Q46.88-0.37 46.25-0.11Q45.62 0.14 44.83 0.14L44.83 0.14Q44.05 0.14 43.40-0.13Q42.76-0.41 42.29-0.93Q41.82-1.45 41.56-2.21Q41.29-2.98 41.29-3.94ZM54.48 0.14L54.48 0.14Q53.74 0.14 53.12-0.14Q52.50-0.43 52.06-0.97Q51.61-1.50 51.37-2.26Q51.12-3.02 51.12-3.97L51.12-3.97Q51.12-4.92 51.37-5.67Q51.61-6.42 52.06-6.94Q52.50-7.46 53.12-7.74Q53.74-8.02 54.48-8.02L54.48-8.02Q55.22-8.02 55.84-7.73Q56.46-7.45 56.91-6.93Q57.36-6.41 57.61-5.66Q57.85-4.91 57.85-3.97L57.85-3.97Q57.85-3.02 57.61-2.26Q57.36-1.50 56.91-0.97Q56.46-0.43 55.84-0.14Q55.22 0.14 54.48 0.14ZM54.48-0.73L54.48-0.73Q55.01-0.73 55.43-0.96Q55.86-1.19 56.17-1.61Q56.47-2.04 56.64-2.63Q56.81-3.23 56.81-3.97L56.81-3.97Q56.81-4.70 56.64-5.29Q56.47-5.88 56.17-6.29Q55.86-6.70 55.43-6.92Q55.01-7.14 54.48-7.14L54.48-7.14Q53.95-7.14 53.53-6.92Q53.10-6.70 52.79-6.29Q52.49-5.88 52.32-5.29Q52.15-4.70 52.15-3.97L52.15-3.97Q52.15-3.23 52.32-2.63Q52.49-2.04 52.79-1.61Q53.10-1.19 53.53-0.96Q53.95-0.73 54.48-0.73ZM60.94 0L60.94-7.03L58.56-7.03L58.56-7.87L64.32-7.87L64.32-7.03L61.94-7.03L61.94 0L60.94 0ZM65.74 0L65.74-7.87L66.73-7.87L66.73-4.57L70.39-4.57L70.39-7.87L71.40-7.87L71.40 0L70.39 0L70.39-3.71L66.73-3.71L66.73 0L65.74 0ZM73.56 0L73.56-7.87L78.10-7.87L78.10-7.03L74.56-7.03L74.56-4.56L77.54-4.56L77.54-3.71L74.56-3.71L74.56-0.85L78.22-0.85L78.22 0L73.56 0ZM80.88-7.07L80.88-4.14L82.20-4.14Q83.12-4.14 83.62-4.52Q84.11-4.90 84.11-5.66L84.11-5.66Q84.11-6.44 83.62-6.76Q83.12-7.07 82.20-7.07L82.20-7.07L80.88-7.07ZM85.33 0L84.20 0L82.31-3.32L80.88-3.32L80.88 0L79.88 0L79.88-7.87L82.34-7.87Q82.94-7.87 83.45-7.76Q83.96-7.64 84.33-7.38Q84.70-7.12 84.90-6.70Q85.10-6.28 85.10-5.66L85.10-5.66Q85.10-4.74 84.62-4.19Q84.14-3.64 83.34-3.43L83.34-3.43L85.33 0ZM90.91 0L90.91-7.03L88.54-7.03L88.54-7.87L94.30-7.87L94.30-7.03L91.92-7.03L91.92 0L90.91 0ZM95.71 0L95.71-7.87L96.71-7.87L96.71-4.57L100.37-4.57L100.37-7.87L101.38-7.87L101.38 0L100.37 0L100.37-3.71L96.71-3.71L96.71 0L95.71 0ZM103.54 0L103.54-7.87L108.07-7.87L108.07-7.03L104.53-7.03L104.53-4.56L107.52-4.56L107.52-3.71L104.53-3.71L104.53-0.85L108.19-0.85L108.19 0L103.54 0ZM109.86 0L109.86-7.87L110.89-7.87L113.74-2.93L114.59-1.30L114.64-1.30Q114.60-1.90 114.56-2.54Q114.52-3.18 114.52-3.80L114.52-3.80L114.52-7.87L115.46-7.87L115.46 0L114.43 0L111.58-4.96L110.72-6.58L110.68-6.58Q110.72-5.98 110.77-5.36Q110.81-4.74 110.81-4.12L110.81-4.12L110.81 0L109.86 0ZM120.05 0L120.05-7.87L121.08-7.87L123.92-2.93L124.78-1.30L124.82-1.30Q124.79-1.90 124.75-2.54Q124.70-3.18 124.70-3.80L124.70-3.80L124.70-7.87L125.65-7.87L125.65 0L124.62 0L121.76-4.96L120.91-6.58L120.86-6.58Q120.91-5.98 120.95-5.36Q121.00-4.74 121.00-4.12L121.00-4.12L121.00 0L120.05 0ZM130.72 0.14L130.72 0.14Q129.97 0.14 129.35-0.14Q128.74-0.43 128.29-0.97Q127.85-1.50 127.60-2.26Q127.36-3.02 127.36-3.97L127.36-3.97Q127.36-4.92 127.60-5.67Q127.85-6.42 128.29-6.94Q128.74-7.46 129.35-7.74Q129.97-8.02 130.72-8.02L130.72-8.02Q131.46-8.02 132.08-7.73Q132.70-7.45 133.15-6.93Q133.60-6.41 133.84-5.66Q134.09-4.91 134.09-3.97L134.09-3.97Q134.09-3.02 133.84-2.26Q133.60-1.50 133.15-0.97Q132.70-0.43 132.08-0.14Q131.46 0.14 130.72 0.14ZM130.72-0.73L130.72-0.73Q131.24-0.73 131.67-0.96Q132.10-1.19 132.40-1.61Q132.71-2.04 132.88-2.63Q133.04-3.23 133.04-3.97L133.04-3.97Q133.04-4.70 132.88-5.29Q132.71-5.88 132.40-6.29Q132.10-6.70 131.67-6.92Q131.24-7.14 130.72-7.14L130.72-7.14Q130.19-7.14 129.76-6.92Q129.34-6.70 129.03-6.29Q128.72-5.88 128.56-5.29Q128.39-4.70 128.39-3.97L128.39-3.97Q128.39-3.23 128.56-2.63Q128.72-2.04 129.03-1.61Q129.34-1.19 129.76-0.96Q130.19-0.73 130.72-0.73ZM136.78-7.07L136.78-4.14L138.10-4.14Q139.02-4.14 139.51-4.52Q140.00-4.90 140.00-5.66L140.00-5.66Q140.00-6.44 139.51-6.76Q139.02-7.07 138.10-7.07L138.10-7.07L136.78-7.07ZM141.23 0L140.10 0L138.20-3.32L136.78-3.32L136.78 0L135.78 0L135.78-7.87L138.24-7.87Q138.84-7.87 139.35-7.76Q139.86-7.64 140.23-7.38Q140.59-7.12 140.80-6.70Q141-6.28 141-5.66L141-5.66Q141-4.74 140.52-4.19Q140.04-3.64 139.24-3.43L139.24-3.43L141.23 0ZM142.75 0L142.75-7.87L143.93-7.87L145.45-3.65L146.03-2.04L146.08-2.04L146.63-3.65L148.14-7.87L149.32-7.87L149.32 0L148.37 0L148.37-4.33Q148.37-4.86 148.41-5.50Q148.45-6.13 148.50-6.66L148.50-6.66L148.45-6.66L147.82-4.91L146.30-0.79L145.74-0.79L144.22-4.91L143.59-6.66L143.54-6.66Q143.58-6.13 143.63-5.50Q143.68-4.86 143.68-4.33L143.68-4.33L143.68 0L142.75 0ZM152.46-3.20L154.82-3.20L154.45-4.40Q154.24-5.06 154.04-5.72Q153.85-6.37 153.66-7.06L153.66-7.06L153.61-7.06Q153.43-6.37 153.24-5.72Q153.05-5.06 152.83-4.40L152.83-4.40L152.46-3.20ZM155.82 0L155.08-2.40L152.21-2.40L151.45 0L150.43 0L153.10-7.87L154.22-7.87L156.89 0L155.82 0ZM158.00 0L158.00-7.87L159.00-7.87L159.00-0.85L162.44-0.85L162.44 0L158.00 0Z" transform="translate(-1.08, 8.016)"></path></g></g></g></g></g><defs v-gra="od"></defs></g></svg>